<?xml version="1.0" encoding="UTF-8"?>
<svg id="Layer_2" data-name="Layer 2" xmlns="http://www.w3.org/2000/svg" viewBox="0 0 176.36 288.27">
  <defs>
    <style>
      .cls-1 {
        fill: #29eaec;
      }

      .cls-2 {
        fill: #27eaec;
      }

      .cls-3 {
        fill: #2aebec;
      }
    </style>
  </defs>
  <g id="Layer_1_Image" data-name="Layer 1 Image">
    <path class="cls-3" d="m176.36,174.86c-.39,1.5-.63,3.06-1.18,4.5-8.44,22.3-17.81,44.18-30.8,64.29-10.2,15.79-22.57,29.53-39.73,37.96-20.09,9.86-39.61,9.09-58-4.48-18.3-13.5-32.01-31.03-43.74-50.26-1.12-1.83-1.8-3.97-2.45-6.03-.74-2.35-.73-4.74,1.18-6.61,1.24-1.21,5.69-1.08,7.71.41,2.77,2.04,5.58,4.14,7.93,6.62,6.12,6.47,11.99,13.17,17.97,19.76,7.7,8.5,15.74,16.59,25.31,23.09,10.42,7.08,21.19,7.74,32.62,2.94,12.16-5.1,22.04-13.3,30.96-22.75,14.68-15.56,26.12-33.51,37.71-51.34,3.27-5.03,6.45-10.11,9.75-15.12.91-1.39,2.1-2.6,3.16-3.89.53.3,1.07.61,1.6.91Z"/>
    <path class="cls-2" d="m85.66,39.01c-.26-1.83-.51-3.65-.77-5.48-.1-1.08-.2-2.17-.3-3.25-.65-5.1-1.29-10.19-1.94-15.29-.05-.72-.11-1.44-.16-2.16-.03-2.17-.29-4.38-.03-6.51.39-3.18,2.37-5.17,5.49-6.05,3.06-.86,5.42.43,7.13,2.7,1.28,1.7,2.38,3.72,2.93,5.77,2.24,8.39,4.19,16.85,6.35,25.26.93,3.62,2.33,7.14,3.1,10.79,2.32,11.05,4.39,22.15,6.65,33.21,1.07,5.25,2.59,10.41,3.5,15.68,1.69,9.76,4.03,19.45,3.21,29.5-.23,2.84-1.09,5.23-2.86,7.45-4.2,5.26-9.69,5.32-13.22-.58-2.55-4.27-4.41-9.1-5.76-13.91-2.07-7.41-3.55-14.99-5.06-22.54-1.43-7.18-2.64-14.41-3.84-21.63-1.44-8.63-2.8-17.27-4.12-25.91-.24-1.59-.08-3.24-.11-4.87-.06-.72-.12-1.45-.18-2.17Z"/>
    <path class="cls-1" d="m56.22,141.56c.02,1.45.05,2.91.07,4.36-.17.84-.34,1.68-.51,2.53-.97,2.11-1.94,4.23-2.87,6.27-2.86.27-5.37.5-8.45.78-.76-1.91-1.81-3.78-2.24-5.79-3.91-18.07-7.23-36.28-11.69-54.2-4.42-17.73-9.97-35.19-15.02-52.76-1.45-5.06-2.96-10.11-4.28-15.21-.54-2.09-.88-4.28-.95-6.44-.08-2.6.41-5.45,3.01-6.56,2.88-1.23,6.32-1.44,8.69,1,2.88,2.96,5.75,6.16,7.68,9.76,4.47,8.36,7.31,17.36,9.21,26.68.78,3.84,2.27,7.53,3.19,11.34,3.55,14.6,7.19,29.18,8.91,44.18.85,7.42,2.64,14.73,4,22.09.07.72.14,1.45.22,2.17.3,2.55.6,5.1.9,7.65.05.72.09,1.45.14,2.17Z"/>
  </g>
</svg>